# AST/ASF file generated using VICON BodyLanguage
# -----------------------------------------------
:version 1.10
:name VICON
:units
  mass 1.0
  length 0.45
  angle deg
:documentation
   .ast/.asf automatically generated from VICON data using
   VICON BodyBuilder and BodyLanguage model FoxedUp or BRILLIANT.MOD
:root
   order TX TY TZ RX RY RZ
   axis XYZ
   position 0 0 0  
   orientation 0 0 0 
:bonedata
  begin
     id 1 
     name lhipjoint
     direction 0.612567 -0.751349 0.245431 
     length 2.42285 
     axis 0 0 0  XYZ
  end
  begin
     id 2 
     name lfemur
     direction 0.34202 -0.939693 0  
     length 7.11304  
     axis 0 0 20  XYZ
    dof rx ry rz
    limits (-160.0 20.0)
           (-70.0 70.0)
           (-60.0 70.0)
  end
  begin
     id 3 
     name ltibia
     direction 0.34202 -0.939693 0   
     length 7.84529   
     axis 0 0 20   XYZ
    dof rx
    limits (-10.0 170.0)
  end
  begin
     id 4 
     name lfoot
     direction 0.0779239 -0.214094 0.9737   
     length 1.97176   
     axis -90 7.62852e-016 20   XYZ
    dof rx rz
    limits (-45.0 90.0)
           (-70.0 20.0)
  end
  begin
     id 5 
     name ltoes
     direction 1.53565e-011 -4.21709e-011 1   
     length 0.993197   
     axis -90 7.62852e-016 20   XYZ
    dof rx
    limits (-90.0 20.0)
  end
  begin
     id 6 
     name rhipjoint
     direction -0.665722 -0.709315 0.231701   
     length 2.56642  
     axis 0 0 0  XYZ 
  end
  begin
     id 7 
     name rfemur
     direction -0.34202 -0.939693 0   
     length 7.32108   
     axis 0 0 -20   XYZ
    dof rx ry rz
    limits (-160.0 20.0)
           (-70.0 70.0)
           (-70.0 60.0)
  end
  begin
     id 8 
     name rtibia
     direction -0.34202 -0.939693 0   
     length 7.81254   
     axis 0 0 -20   XYZ
    dof rx
    limits (-10.0 170.0)
 end
 begin
     id 9 
     name rfoot
     direction -0.0832806 -0.228812 0.969902   
     length 2.08278  
     axis -90 -7.62852e-016 -20   XYZ
    dof rx rz
    limits (-45.0 90.0)
           (-20.0 70.0)
  end
  begin
     id 10 
     name rtoes
     direction -1.53589e-011 -4.22086e-011 1   
     length 1.04609   
     axis -90 -7.62852e-016 -20   XYZ
    dof rx
    limits (-90.0 20.0)
  end
  begin
     id 11 
     name lowerback
     direction -0.00506013 0.988403 -0.151766   
     length 2.01978   
     axis 0 0 0   XYZ
    dof rx ry rz
    limits (-20.0 45.0)
           (-30.0 30.0)
           (-30.0 30.0)
  end
  begin
     id 12 
     name upperback
     direction -0.00836389 0.99968 0.0238859   
     length 2.01276   
     axis 0 0 0   XYZ
    dof rx ry rz
    limits (-20.0 45.0)
           (-30.0 30.0)
           (-30.0 30.0)
  end
  begin
     id 13 
     name thorax
     direction -0.00684136 0.995386 0.0957043   
     length 2.07303   
     axis 0 0 0   XYZ
    dof rx ry rz
    limits (-20.0 45.0)
           (-30.0 30.0)
           (-30.0 30.0)
  end
  begin
     id 14 
     name lowerneck
     direction -0.0161045 0.999661 0.0204485   
     length 1.91243   
     axis 0 0 0   XYZ
    dof rx ry rz
    limits (-20.0 45.0)
           (-30.0 30.0)
           (-30.0 30.0)
  end
  begin
     id 15 
     name upperneck
     direction 0.0553583 0.990946 -0.122319   
     length 1.91574   
     axis 0 0 0   XYZ
    dof rx ry rz
    limits (-20.0 45.0)
           (-30.0 30.0)
           (-30.0 30.0)
  end
  begin
     id 16
     name head
     direction 0.0180273 0.998839 -0.0446756  
     length 1.92693  
     axis 0 0 0   XYZ
    dof rx ry rz
    limits (-20.0 45.0)
           (-30.0 30.0)
           (-30.0 30.0)
  end
  begin
     id 17 
     name lclavicle
     direction 0.945646 0.319323 -0.0615358  
     length 4.0076  
     axis 0 0 0   XYZ
    dof ry rz
    limits (-20.0 10.0)
           (0.0 20.0)
  end
  begin
     id 18 
     name lhumerus
     direction 1 -4.48967e-011 -2.79996e-027   
     length 5.64147   
     axis 180 -30 -90   XYZ
    dof rx ry rz
    limits (-60.0 90.0)
           (-90.0 90.0)
           (-90.0 90.0)
  end
  begin
     id 19
     name lradius
     direction 1 -4.48976e-011 -9.5122e-027   
     length 2.86444   
     axis 180 -30 -90   XYZ
    dof rx
    limits (-10.0 170.0)
  end
  begin
     id 20
     name lwrist
     direction 1 -4.48983e-011 -1.24047e-026   
     length 1.43222   
     axis 9.05591e-015 90 90   XYZ
    dof ry
    limits (-180.0 0.0)
 end
  begin
     id 21 
     name lhand
     direction 1 -4.4892e-011 -2.48094e-026   
     length 0.722123   
     axis 1.58305e-014 90 90   XYZ
    dof rx rz
    limits (-90.0 90.0)
           (-45.0 45.0)
  end
  begin
     id 22 
     name lfingers
     direction 1 -4.48895e-011 -4.96187e-026   
     length 0.582194   
     axis 3.1661e-014 90 90   XYZ
    dof rx
    limits (0.0 90.0)
  end
  begin
     id 23
     name lthumb
     direction 0.707107 -6.34961e-011 0.707107   
     length 0.835918   
     axis -90 45 2.85299e-015   XYZ
    dof rx rz
    limits (-45.0 45.0)
           (-45.0 45.0)
  end
  begin
     id 24 
     name rclavicle
     direction -0.932635 0.324218 -0.15835   
     length 3.65819  
     axis 0 0 0   XYZ 
    dof ry rz
    limits (-10.0 20.0)
           (-20.0 0.0)
  end
  begin
     id 25 
     name rhumerus
     direction -1 -4.48965e-011 -4.02296e-027  
     length 5.44729   
     axis 180 30 90   XYZ
    dof rx ry rz
    limits (-90.0 60.0)
           (-90.0 90.0)
           (-90.0 90.0)
  end
  begin
     id 26 
     name rradius
     direction -1 -4.48957e-011 -8.81087e-027   
     length 3.08821   
     axis 180 30 90   XYZ
    dof rx
    limits (-10.0 170.0)
  end
  begin
     id 27 
     name rwrist
     direction -1 -4.49015e-011 -1.24047e-026   
     length 1.5441   
     axis 9.05591e-015 -90 -90   XYZ
    dof ry
    limits (-180.0 0.0)
  end
  begin
     id 28
     name rhand
     direction -1 -4.4891e-011 -2.48094e-026   
     length 0.821049   
     axis 1.58305e-014 -90 -90   XYZ
    dof rx rz
    limits (-90.0 90.0)
           (-45.0 45.0)
  end
  begin
     id 29
     name rfingers
     direction -1 -4.48985e-011 -4.96187e-026   
     length 0.661951   
     axis 3.1661e-014 -90 -90   XYZ
    dof rx
    limits (0.0 90.0)
  end
  begin
     id 30
     name rthumb
     direction -0.707107 -6.34906e-011 0.707107   
     length 0.950433   
     axis -90 -45 -2.85299e-015   XYZ
    dof rx rz
    limits (-45.0 45.0)
           (-45.0 45.0)
  end
:hierarchy
  begin
    root lhipjoint rhipjoint lowerback
    lhipjoint lfemur
    lfemur ltibia
    ltibia lfoot
    lfoot ltoes
    rhipjoint rfemur
    rfemur rtibia
    rtibia rfoot
    rfoot rtoes
    lowerback upperback
    upperback thorax
    thorax lowerneck lclavicle rclavicle
    lowerneck upperneck
    upperneck head
    lclavicle lhumerus
    lhumerus lradius
    lradius lwrist
    lwrist lhand lthumb
    lhand lfingers
    rclavicle rhumerus
    rhumerus rradius
    rradius rwrist
    rwrist rhand rthumb
    rhand rfingers
  end

#!OML:ASF F:\VICON\USERDATA\INSTALL\rory3\rory3.ASF
:FULLY-SPECIFIED
:DEGREES
3186
root 3.59591 17.5777 0.000933587 556.524 84.9499 558.82
lowerback 4.15892 -0.497922 0.961899
upperback -2.56206 -0.659047 -1.54709
thorax -5.01491 -0.380937 -2.088
lowerneck 3.91877 -16.2702 -7.74142
upperneck -1.66352 -21.9695 14.6656
head 1.37996 -11.0636 5.07293
rclavicle 3.97569e-015 1.35174e-014
rhumerus -35.9175 18.1174 -91.5745
rradius 103.097
rwrist 11.321
rhand -31.3389 17.9899
rfingers 7.12502
rthumb -4.61036 -11.9399
lclavicle 3.97569e-015 1.35174e-014
lhumerus -48.055 -6.17181 85.5907
lradius 100.022
lwrist 33.5579
lhand -30.8486 -9.03157
lfingers 7.12502
lthumb -4.13699 20.908
rfemur 4.20556 -1.65669 20.4655
rtibia 15.0484
rfoot -22.2897 -10.1432
rtoes -4.51454
lfemur -1.63957 -1.94993 -14.7484
ltibia 17.9962
lfoot -13.3265 -6.45276
ltoes -3.48386
3187
root 3.59656 17.5776 0.000182326 555.969 85.0491 558.252
lowerback 4.15792 -0.503471 0.875373
upperback -2.54825 -0.672938 -1.57818
thorax -4.99979 -0.385092 -2.07044
lowerneck 3.82013 -16.2549 -7.68327
upperneck -1.62786 -21.945 14.6371
head 1.39379 -11.0466 5.04956
rclavicle 8.24956e-015 2.14687e-014
rhumerus -35.8907 18.2034 -91.6664
rradius 102.956
rwrist 11.4416
rhand -31.4526 18.0599
rfingers 7.12502
rthumb -4.72016 -11.8675
lclavicle 8.24956e-015 2.14687e-014
lhumerus -48.0634 -6.35969 85.6091
lradius 99.9757
lwrist 33.7123
lhand -30.8222 -9.00784
lfingers 7.12502
lthumb -4.11141 20.9322
rfemur 4.16999 -1.63422 20.3692
rtibia 15.1016
rfoot -22.3373 -9.99193
rtoes -4.31387
lfemur -1.61881 -1.90921 -14.8403
ltibia 17.9715
lfoot -13.3164 -6.39636
ltoes -3.25856
3188
root 3.5944 17.578 0.000129939 556.628 85.0942 558.911
lowerback 4.20715 -0.519081 0.88712
upperback -2.54669 -0.692698 -1.56476
thorax -5.02704 -0.395368 -2.06116
lowerneck 3.78193 -16.2316 -7.70357
upperneck -1.62916 -21.9137 14.6796
head 1.40318 -11.0295 5.0621
rclavicle -3.8763e-015 6.36111e-015
rhumerus -35.9362 18.318 -91.7672
rradius 102.784
rwrist 11.5134
rhand -31.683 18.0805
rfingers 7.12502
rthumb -4.94265 -11.8418
lclavicle -3.8763e-015 6.36111e-015
lhumerus -48.0928 -6.47356 85.6267
lradius 99.896
lwrist 33.7888
lhand -30.7743 -9.05595
lfingers 7.12502
lthumb -4.06521 20.885
rfemur 4.13768 -1.6483 20.4029
rtibia 15.1289
rfoot -22.3239 -9.91786
rtoes -4.35667
lfemur -1.6085 -1.86646 -14.7976
ltibia 17.9611
lfoot -13.3375 -6.354
ltoes -3.61166
3189
root 3.59287 17.5775 0.000381562 557.825 85.1447 560.111
lowerback 4.25798 -0.532131 0.938808
upperback -2.54948 -0.706298 -1.54535
thorax -5.05998 -0.403968 -2.06863
lowerneck 3.76649 -16.2104 -7.74583
upperneck -1.65323 -21.8855 14.7619
head 1.40959 -11.0154 5.09084
rclavicle -1.41634e-014 -1.82882e-014
rhumerus -35.9777 18.357 -91.8694
rradius 102.757
rwrist 11.469
rhand -31.7387 18.0883
rfingers 7.12502
rthumb -4.99644 -11.8328
lclavicle -1.41634e-014 -1.82882e-014
lhumerus -48.0853 -6.51035 85.636
lradius 99.7747
lwrist 33.6957
lhand -30.7215 -9.05122
lfingers 7.12502
lthumb -4.0142 20.8907
rfemur 4.10821 -1.60884 20.4908
rtibia 15.1308
rfoot -22.2873 -9.90672
rtoes -4.53854
lfemur -1.61015 -1.84593 -14.7046
ltibia 17.9755
lfoot -13.3329 -6.35036
ltoes -3.21573
3190
root 3.59435 17.5777 -0.00069947 558.745 85.2291 560.999
lowerback 4.20942 -0.538933 0.952776
upperback -2.5497 -0.713803 -1.526
thorax -5.03274 -0.407652 -2.056
lowerneck 3.77386 -16.1771 -7.8103
upperneck -1.67098 -21.8436 14.8229
head 1.41259 -10.9955 5.11932
rclavicle -5.26779e-015 -4.77083e-015
rhumerus -35.9358 18.057 -92.0328
rradius 102.785
rwrist 11.5243
rhand -31.4273 18.0876
rfingers 7.12502
rthumb -4.69574 -11.8404
lclavicle -5.26779e-015 -4.77083e-015
lhumerus -48.0835 -6.52657 85.6654
lradius 99.6726
lwrist 33.5259
lhand -30.7361 -8.97366
lfingers 7.12502
lthumb -4.02831 20.968
rfemur 4.06293 -1.54688 20.5324
rtibia 15.1226
rfoot -22.2999 -9.81376
rtoes -4.18118
lfemur -1.64362 -1.82144 -14.6621
ltibia 18.0037
lfoot -13.3469 -6.32314
ltoes -2.73058
3191
root 3.59496 17.5781 -0.00131796 559.038 85.288 561.269
lowerback 4.18256 -0.541547 0.935501
upperback -2.54267 -0.718097 -1.51821
thorax -5.00991 -0.408851 -2.03796
lowerneck 3.71226 -16.1489 -7.79851
upperneck -1.63555 -21.8059 14.7638
head 1.42041 -10.9736 5.09759
rclavicle -2.68359e-015 2.06736e-014
rhumerus -35.9024 17.832 -92.1611
rradius 102.78
rwrist 11.3511
rhand -31.1878 18.0033
rfingers 7.12502
rthumb -4.46451 -11.9296
lclavicle -2.68359e-015 2.06736e-014
lhumerus -48.0518 -6.58002 85.6882
lradius 99.5905
lwrist 33.4081
lhand -30.5318 -8.82324
lfingers 7.12502
lthumb -3.83104 21.1221
rfemur 4.01599 -1.50125 20.5275
rtibia 15.1535
rfoot -22.2713 -9.72512
rtoes -3.5139
lfemur -1.649 -1.74252 -14.6618
ltibia 17.9918
lfoot -13.395 -6.28204
ltoes -3.45338
3192
root 3.59457 17.5788 -0.00255666 558.847 85.3529 561.034
lowerback 4.16498 -0.5388 0.903374
upperback -2.55069 -0.716779 -1.5297
thorax -5.00793 -0.407225 -2.03204
lowerneck 3.65653 -16.1321 -7.8227
upperneck -1.57607 -21.7887 14.7099
head 1.44114 -10.9614 5.07919
rclavicle -8.44835e-016 -1.90833e-014
rhumerus -36.017 18.129 -92.1813
rradius 102.78
rwrist 10.8785
rhand -31.2917 17.7986
rfingers 7.12502
rthumb -4.56485 -12.1322
lclavicle -8.44835e-016 -1.90833e-014
lhumerus -48.0595 -6.70163 85.7321
lradius 99.5109
lwrist 33.2849
lhand -30.5272 -8.84165
lfingers 7.12502
lthumb -3.82655 21.1037
rfemur 3.93948 -1.51671 20.4616
rtibia 15.1957
rfoot -22.2018 -9.64662
rtoes -3.1138
lfemur -1.66011 -1.7579 -14.7195
ltibia 17.9525
lfoot -13.4033 -6.21573
ltoes -3.89353
3193
root 3.59382 17.5798 -0.0029656 558.215 85.4273 560.36
lowerback 4.15896 -0.552904 0.788406
upperback -2.55798 -0.742809 -1.53455
thorax -5.01161 -0.416196 -1.97024
lowerneck 3.60182 -16.0901 -7.81489
upperneck -1.53775 -21.7329 14.6539
head 1.44757 -10.9307 5.06067
rclavicle 6.5102e-015 -5.56597e-015
rhumerus -36.1722 18.3991 -92.2656
rradius 102.7
rwrist 10.8647
rhand -31.7899 17.9013
rfingers 7.12502
rthumb -5.04588 -12.0186
lclavicle 6.5102e-015 -5.56597e-015
lhumerus -48.0906 -6.80028 85.7738
lradius 99.428
lwrist 33.1673
lhand -30.658 -8.97818
lfingers 7.12502
lthumb -3.95291 20.9649
rfemur 3.85662 -1.52373 20.3659
rtibia 15.2379
rfoot -22.1598 -9.67888
rtoes -3.17926
lfemur -1.66668 -1.77561 -14.8135
ltibia 17.9064
lfoot -13.3996 -6.15748
ltoes -3.92818
3194
root 3.59299 17.5799 -0.00399628 557.697 85.4425 559.829
lowerback 4.18688 -0.577714 0.726279
upperback -2.56263 -0.780536 -1.55353
thorax -5.03332 -0.433165 -1.95163
lowerneck 3.53048 -16.0612 -7.8099
upperneck -1.44065 -21.7008 14.6422
head 1.48208 -10.9092 5.04818
rclavicle 6.60959e-015 -2.46493e-014
rhumerus -36.3081 18.3994 -92.3978
rradius 102.591
rwrist 11.2649
rhand -32.4152 18.1342
rfingers 7.12502
rthumb -5.64959 -11.7705
lclavicle 6.60959e-015 -2.46493e-014
lhumerus -48.1267 -6.97014 85.8268
lradius 99.3305
lwrist 33.0242
lhand -30.8177 -9.19461
lfingers 7.12502
lthumb -4.10709 20.7455
rfemur 3.81627 -1.559 20.3055
rtibia 15.2839
rfoot -22.2106 -9.63944
rtoes -3.06206
lfemur -1.64767 -1.74631 -14.8579
ltibia 17.8609
lfoot -13.3661 -6.2059
ltoes -3.78741
3195
root 3.59308 17.5804 -0.00456853 557.805 85.4726 559.946
lowerback 4.23897 -0.578846 0.705628
upperback -2.56577 -0.783545 -1.5547
thorax -5.06612 -0.43421 -1.94063
lowerneck 3.4288 -16.0485 -7.83116
upperneck -1.30782 -21.6944 14.6262
head 1.5371 -10.8983 5.03111
rclavicle -8.59744e-015 -3.18055e-015
rhumerus -36.3985 18.3936 -92.4764
rradius 102.481
rwrist 11.5747
rhand -32.7792 18.1414
rfingers 7.12502
rthumb -6.001 -11.7536
lclavicle -8.59744e-015 -3.18055e-015
lhumerus -48.19 -7.10594 85.8983
lradius 99.3208
lwrist 32.9738
lhand -30.8955 -9.12121
lfingers 7.12502
lthumb -4.18227 20.8175
rfemur 3.80394 -1.47637 20.3167
rtibia 15.3281
rfoot -22.2862 -9.60687
rtoes -2.7031
lfemur -1.60791 -1.69413 -14.855
ltibia 17.8072
lfoot -13.3564 -6.2025
ltoes -3.69603
3196
root 3.5936 17.5796 -0.00470426 557.45 85.5045 559.593
lowerback 4.29032 -0.57354 0.65838
upperback -2.57222 -0.779937 -1.5643
thorax -5.10144 -0.431159 -1.92402
lowerneck 3.36604 -16.0316 -7.84108
upperneck -1.27845 -21.6727 14.5941
head 1.55063 -10.8843 5.01817
rclavicle -1.34677e-014 1.35174e-014
rhumerus -36.4964 18.3119 -92.4882
rradius 102.515
rwrist 11.4046
rhand -32.6698 18.4078
rfingers 7.12502
rthumb -5.89541 -11.4902
lclavicle -1.34677e-014 1.35174e-014
lhumerus -48.2074 -7.13943 85.9854
lradius 99.3008
lwrist 33.0443
lhand -30.8015 -8.95638
lfingers 7.12502
lthumb -4.09148 20.9841
rfemur 3.79361 -1.46075 20.2762
rtibia 15.36
rfoot -22.3152 -9.54732
rtoes -2.51919
lfemur -1.57898 -1.6912 -14.8975
ltibia 17.7682
lfoot -13.3688 -6.14116
ltoes -3.44067
3197
root 3.59468 17.5801 -0.00407604 557.135 85.5487 559.299
lowerback 4.34083 -0.581997 0.5906
upperback -2.5678 -0.796207 -1.57678
thorax -5.12545 -0.437169 -1.89712
lowerneck 3.37178 -16.0007 -7.78531
upperneck -1.35056 -21.6201 14.5356
head 1.50994 -10.8608 5.00403
rclavicle -3.18055e-015 7.95139e-016
rhumerus -36.5991 18.2688 -92.5526
rradius 102.56
rwrist 11.2188
rhand -32.5941 18.748
rfingers 7.12502
rthumb -5.8223 -11.1521
lclavicle -3.18055e-015 7.95139e-016
lhumerus -48.2215 -7.26424 86.0432
lradius 99.296
lwrist 33.2329
lhand -30.7697 -8.88733
lfingers 7.12502
lthumb -4.06075 21.0537
rfemur 3.80274 -1.41542 20.2376
rtibia 15.3932
rfoot -22.3248 -9.50767
rtoes -2.8009
lfemur -1.52127 -1.67081 -14.9362
ltibia 17.7353
lfoot -13.3366 -6.11163
ltoes -3.12743
3198
root 3.59527 17.5816 -0.00330356 557.365 85.5808 559.51
lowerback 4.35424 -0.59365 0.573961
upperback -2.58624 -0.813514 -1.59353
thorax -5.15309 -0.445587 -1.90357
lowerneck 3.42656 -15.9591 -7.77974
upperneck -1.3822 -21.5626 14.5573
head 1.48753 -10.8353 5.02019
rclavicle -8.59744e-015 1.59028e-015
rhumerus -36.735 18.2936 -92.6726
rradius 102.518
rwrist 11.3825
rhand -32.4831 18.5779
rfingers 7.12502
rthumb -5.71514 -11.325
lclavicle -8.59744e-015 1.59028e-015
lhumerus -48.2011 -7.39034 86.0546
lradius 99.2173
lwrist 33.4583
lhand -30.7105 -8.8293
lfingers 7.12502
lthumb -4.00358 21.1128
rfemur 3.75119 -1.40941 20.2475
rtibia 15.4352
rfoot -22.2465 -9.55061
rtoes -3.80875
lfemur -1.52768 -1.57897 -14.9217
ltibia 17.7094
lfoot -13.308 -6.12433
ltoes -3.32794
3199
root 3.59515 17.5812 -0.00413329 557.884 85.5765 560.029
lowerback 4.39442 -0.594427 0.633116
upperback -2.59346 -0.812006 -1.62089
thorax -5.18492 -0.447619 -1.96514
lowerneck 3.43386 -15.9369 -7.77283
upperneck -1.38938 -21.5322 14.5961
head 1.48467 -10.8206 5.03314
rclavicle -6.5102e-015 -1.59028e-015
rhumerus -36.8975 18.2585 -92.81
rradius 102.388
rwrist 11.85
rhand -32.4832 18.2346
rfingers 7.12502
rthumb -5.71522 -11.6683
lclavicle -6.5102e-015 -1.59028e-015
lhumerus -48.1195 -7.52326 86.0441
lradius 99.0962
lwrist 33.6041
lhand -30.6514 -8.8057
lfingers 7.12502
lthumb -3.94649 21.1375
rfemur 3.74147 -1.4016 20.2924
rtibia 15.4567
rfoot -22.2759 -9.52547
rtoes -3.83564
lfemur -1.52886 -1.55308 -14.8788
ltibia 17.7018
lfoot -13.3339 -6.13937
ltoes -3.59358
3200
root 3.595 17.5809 -0.00495152 557.999 85.6007 560.155
lowerback 4.45533 -0.594725 0.643096
upperback -2.6013 -0.813053 -1.64759
thorax -5.22856 -0.449238 -1.99804
lowerneck 3.37657 -15.9121 -7.75938
upperneck -1.32456 -21.5024 14.5812
head 1.50647 -10.8016 5.02156
rclavicle -1.09332e-015 1.59028e-015
rhumerus -37.069 18.2071 -92.9393
rradius 102.253
rwrist 12.2146
rhand -32.7615 18.3325
rfingers 7.12502
rthumb -5.98399 -11.563
lclavicle -1.09332e-015 1.59028e-015
lhumerus -48.1902 -7.6749 86.0577
lradius 99.1154
lwrist 33.7619
lhand -30.658 -8.856
lfingers 7.12502
lthumb -3.9529 21.0871
rfemur 3.75418 -1.39261 20.2887
rtibia 15.4464
rfoot -22.2736 -9.52761
rtoes -3.74512
lfemur -1.52472 -1.54964 -14.8818
ltibia 17.7364
lfoot -13.4043 -6.10362
ltoes -3.97402
